<?xml version="1.0" encoding="UTF-8" standalone="no"?>
<svg xmlns:xlink="http://www.w3.org/1999/xlink" height="14.5px" width="21.5px" xmlns="http://www.w3.org/2000/svg">
  <g transform="matrix(1.0, 0.0, 0.0, 1.0, 10.8, 23.55)">
    <path d="M-0.05 -22.5 L1.25 -23.55 Q6.4 -23.75 8.5 -20.95 L6.35 -21.65 Q8.6 -20.65 10.7 -17.6 8.55 -19.05 7.05 -19.1 9.45 -17.8 10.45 -14.3 L9.05 -15.35 Q7.35 -16.3 5.55 -16.55 L2.75 -16.65 Q4.3 -14.85 3.75 -13.75 3.35 -15.35 -0.05 -16.6 L-0.1 -16.65 -0.1 -22.45 -0.05 -22.5" fill="#ffffff" fill-rule="evenodd" stroke="none"/>
    <path d="M9.05 -15.35 Q9.45 -14.15 8.7 -12.2 L8.05 -11.7 Q7.5 -11.2 7.15 -9.05 L7.25 -12.7 Q5.5 -13.85 5.55 -16.55 7.35 -16.3 9.05 -15.35 M-0.05 -16.6 Q-3.45 -15.35 -3.85 -13.75 -4.4 -14.9 -2.85 -16.65 L-5.65 -16.55 Q-5.55 -13.85 -7.35 -12.7 L-7.25 -9.05 Q-7.6 -11.15 -8.15 -11.7 L-8.8 -12.2 Q-9.6 -14.2 -9.15 -15.35 L-10.55 -14.4 Q-9.6 -17.8 -7.15 -19.1 -8.6 -19.0 -10.8 -17.6 -8.8 -20.45 -6.45 -21.55 L-8.6 -20.95 Q-6.45 -23.75 -1.35 -23.55 L-0.05 -22.5 -0.1 -22.45 -0.1 -16.65 -0.05 -16.6" fill="#999999" fill-rule="evenodd" stroke="none"/>
  </g>
</svg>
