<?xml version="1.0" encoding="UTF-8" standalone="no"?>
<svg xmlns:xlink="http://www.w3.org/1999/xlink" height="15.35px" width="7.25px" xmlns="http://www.w3.org/2000/svg">
  <g transform="matrix(1.0, 0.0, 0.0, 1.0, 3.75, 3.1)">
    <path d="M2.5 11.75 L2.45 11.75 2.35 11.8 2.25 11.8 2.45 11.7 2.5 11.75" fill="#6da6b4" fill-rule="evenodd" stroke="none"/>
    <path d="M-3.25 6.15 L-3.3 6.1 -3.25 6.1 -3.25 6.15 M0.25 8.1 L0.25 8.15 0.2 8.1 0.25 8.1 M-2.55 3.15 L-2.5 3.15 -2.55 3.15" fill="#315760" fill-rule="evenodd" stroke="none"/>
    <path d="M-3.25 6.1 L-3.05 5.15 -3.45 2.65 -3.2 0.0 Q-3.1 -1.25 -2.25 -2.15 -1.3 -3.1 0.0 -3.1 1.15 -3.1 2.05 -2.35 L2.05 5.35 2.3 6.45 1.85 8.7 2.2 10.25 1.9 11.95 0.0 12.25 -2.25 11.8 Q-3.2 11.35 -3.2 10.75 L-3.75 8.0 -3.25 6.15 -3.25 6.1 M2.6 -1.75 Q3.1 -1.0 3.2 0.05 L2.9 5.05 3.5 7.25 3.0 9.25 3.2 10.75 Q3.2 11.35 2.5 11.75 L2.45 11.7 2.7 10.3 2.3 8.45 2.8 7.45 2.45 5.3 2.6 -1.75 M0.25 8.1 L0.2 8.1 0.25 8.15 0.25 8.1 M-2.55 3.15 L-2.5 3.15 -2.55 3.15" fill="#4f8997" fill-rule="evenodd" stroke="none"/>
    <path d="M2.05 -2.35 L2.25 -2.15 2.3 -2.1 2.6 -1.75 2.45 5.3 2.8 7.45 2.3 8.45 2.7 10.3 2.45 11.7 2.25 11.8 1.9 11.95 2.2 10.25 1.85 8.7 2.3 6.45 2.05 5.35 2.05 -2.35" fill="#3d6b76" fill-rule="evenodd" stroke="none"/>
    <path d="M0.1 3.5 Q0.45 3.75 0.65 4.8 L-0.35 5.15 0.7 5.15 0.75 5.4 0.85 6.75 0.85 8.2 0.25 8.1 0.2 8.1 0.25 8.15 0.7 8.55 0.75 8.55 0.55 8.9 -0.6 9.1 -0.6 8.2 -0.95 9.0 Q-1.9 8.7 -2.25 7.95 L-2.25 7.9 -1.7 7.4 -2.35 7.65 -2.55 6.5 -1.75 6.35 -2.6 6.2 -2.6 5.7 Q-2.6 4.5 -2.3 3.9 L-1.6 4.4 -2.15 3.65 Q-1.85 3.2 -1.35 3.25 L-0.9 3.35 -0.4 3.4 -0.95 4.35 0.1 3.5" fill="#efd054" fill-rule="evenodd" stroke="none"/>
    <path d="M-0.4 3.4 L0.0 2.65 0.2 3.4 0.1 3.5 -0.95 4.35 -0.4 3.4 M0.65 4.8 L1.95 4.25 0.7 5.15 -0.35 5.15 0.65 4.8 M0.85 8.2 L1.75 8.35 0.75 8.55 0.7 8.55 0.25 8.15 0.25 8.1 0.85 8.2 M-0.6 9.1 L-0.6 10.55 -0.95 9.0 -0.6 8.2 -0.6 9.1 M-2.25 7.9 L-2.5 8.1 -3.15 7.95 -2.35 7.65 -1.7 7.4 -2.25 7.9 M-2.55 6.5 L-2.8 6.55 -3.25 6.15 -3.25 6.1 -2.6 6.2 -1.75 6.35 -2.55 6.5 M-2.3 3.9 L-2.5 3.8 -2.55 3.15 -2.5 3.15 -2.15 3.65 -1.6 4.4 -2.3 3.9" fill="#315b60" fill-rule="evenodd" stroke="none"/>
  </g>
</svg>
