<?xml version="1.0" encoding="UTF-8" standalone="no"?>
<svg xmlns:xlink="http://www.w3.org/1999/xlink" height="205.15px" width="128.1px" xmlns="http://www.w3.org/2000/svg">
  <g transform="matrix(1.0, 0.0, 0.0, 1.0, -221.1, -258.8)">
    <path d="M325.6 260.65 L324.05 259.85 Q316.9 257.15 305.9 263.25 304.35 263.9 303.1 264.95 304.4 263.8 305.9 263.15 317.0 256.95 324.1 259.85 L326.05 260.9 325.6 260.65 M326.4 269.75 Q336.45 273.25 341.25 300.45 340.25 307.35 335.85 308.25 328.25 296.1 315.5 286.2 299.25 276.75 305.25 267.75 311.95 261.0 326.4 269.75" fill="#fcdabf" fill-rule="evenodd" stroke="none"/>
    <path d="M329.45 352.45 L319.0 362.7 Q320.2 367.5 319.85 373.25 287.2 373.7 270.6 350.95 L280.5 336.7 282.55 331.0 Q283.9 342.65 303.5 349.75 322.65 356.7 329.45 352.45 M340.95 299.0 Q342.9 307.3 344.0 317.95 L344.85 325.3 335.85 305.1 Q340.25 303.45 340.95 299.0" fill="#c8c6d2" fill-rule="evenodd" stroke="none"/>
    <path d="M282.55 331.0 L292.95 283.05 Q294.9 272.05 305.9 264.35 316.1 257.2 322.65 259.3 340.15 267.45 340.6 283.1 L349.2 310.8 Q346.65 325.95 341.6 336.65 339.65 341.25 334.25 347.2 L329.45 352.45 Q322.65 356.7 303.5 349.75 283.9 342.65 282.55 331.0 M335.85 305.1 L344.85 325.3 344.0 317.95 Q342.9 307.3 340.95 299.0 331.95 270.65 325.3 268.8 311.6 261.45 305.45 268.85 300.05 278.05 315.65 285.75 328.4 294.15 335.85 305.1" fill="#db98d3" fill-rule="evenodd" stroke="none"/>
    <path d="M319.85 373.25 Q319.15 385.55 312.55 401.3 306.45 412.55 277.7 402.35 264.75 397.65 257.9 388.45 252.05 380.45 254.45 376.95 255.95 372.85 270.6 350.95 287.2 373.7 319.85 373.25" fill="#f7d5ea" fill-rule="evenodd" stroke="none"/>
    <path d="M308.1 387.1 L311.8 387.25 Q312.85 399.65 309.15 412.35 L308.1 387.1 M242.3 383.95 Q255.5 367.7 263.0 363.1 264.9 366.7 267.3 370.5 257.7 367.9 242.3 383.95 M270.3 373.65 Q271.7 375.35 273.5 376.85 265.45 382.1 261.45 387.4 263.4 378.15 270.3 373.65 M282.35 383.0 L286.4 384.75 Q279.0 394.65 273.9 406.25 276.4 392.2 282.35 383.0 M302.45 387.35 L305.6 387.4 302.9 398.95 Q302.6 393.3 302.45 387.35" fill="#de65ae" fill-rule="evenodd" stroke="none"/>
    <path d="M311.8 387.25 L317.75 386.2 Q319.85 395.75 319.55 419.9 318.4 421.5 316.95 422.2 315.0 423.5 312.7 422.65 307.6 421.4 307.2 421.6 305.15 421.7 303.0 425.3 301.1 428.7 295.5 425.75 288.6 423.0 284.45 425.6 280.65 428.0 272.1 424.9 264.0 422.25 261.75 417.35 259.8 412.2 258.6 411.5 257.15 409.8 253.7 409.7 251.65 409.55 249.9 408.05 248.1 406.5 247.55 404.0 247.3 400.65 246.6 399.25 245.85 397.5 243.15 396.85 239.7 395.85 239.1 390.95 L238.85 388.55 242.3 383.95 Q257.7 367.9 267.3 370.5 268.5 372.15 270.0 373.55 L270.3 373.65 Q263.4 378.15 261.45 387.4 265.45 382.1 273.5 376.85 279.95 382.4 282.35 383.0 276.4 392.2 273.9 406.25 279.0 394.65 286.4 384.75 286.75 384.6 286.65 384.85 293.65 387.4 302.45 387.35 302.6 393.3 302.9 398.95 L305.6 387.4 308.1 387.1 309.15 412.35 Q312.85 399.65 311.8 387.25" fill="#e685b7" fill-rule="evenodd" stroke="none"/>
    <path d="M316.95 422.2 L318.6 433.0 Q316.8 435.6 313.95 436.0 L311.15 435.85 305.25 434.3 Q302.9 434.35 300.95 438.0 298.9 441.35 292.9 438.55 285.4 435.0 280.3 438.7 275.5 441.3 268.6 438.55 261.65 436.0 257.7 429.9 254.15 423.65 252.35 422.1 250.5 420.85 247.1 420.45 244.85 420.25 242.55 418.55 240.45 417.2 239.9 414.65 239.7 411.1 238.7 409.8 237.85 408.05 234.9 407.25 233.2 406.35 231.95 405.05 230.2 402.65 230.15 398.85 L239.1 390.95 Q239.7 395.85 243.15 396.85 245.85 397.5 246.6 399.25 247.3 400.65 247.55 404.0 248.1 406.5 249.9 408.05 251.65 409.55 253.7 409.7 257.15 409.8 258.6 411.5 259.8 412.2 261.75 417.35 264.0 422.25 272.1 424.9 280.65 428.0 284.45 425.6 288.6 423.0 295.5 425.75 301.1 428.7 303.0 425.3 305.15 421.7 307.2 421.6 307.6 421.4 312.7 422.65 315.0 423.5 316.95 422.2" fill="#d85896" fill-rule="evenodd" stroke="none"/>
    <path d="M313.95 436.0 L315.8 445.45 Q313.3 448.35 310.0 448.6 L308.05 448.2 Q302.6 446.5 302.25 446.65 299.95 446.4 296.6 450.75 293.45 454.6 287.4 451.25 281.15 447.5 274.05 450.15 267.1 452.3 260.25 449.5 253.55 446.25 251.2 440.7 249.3 435.3 247.95 434.25 246.5 432.55 242.9 432.1 239.6 431.5 237.3 429.8 235.0 428.05 234.95 425.75 235.15 422.85 234.2 421.4 233.3 419.85 230.6 419.15 228.65 418.15 227.4 416.8 225.55 414.7 225.3 410.5 L231.95 405.05 Q233.2 406.35 234.9 407.25 237.85 408.05 238.7 409.8 239.7 411.1 239.9 414.65 240.45 417.2 242.55 418.55 244.85 420.25 247.1 420.45 250.5 420.85 252.35 422.1 254.15 423.65 257.7 429.9 261.65 436.0 268.6 438.55 275.5 441.3 280.3 438.7 285.4 435.0 292.9 438.55 298.9 441.35 300.95 438.0 302.9 434.35 305.25 434.3 L311.15 435.85 313.95 436.0" fill="#b81360" fill-rule="evenodd" stroke="none"/>
    <path d="M310.0 448.6 L311.6 457.1 Q308.35 461.15 303.75 460.05 298.35 458.1 298.0 458.25 295.65 458.3 293.4 462.2 291.55 465.6 284.25 462.35 277.05 458.85 271.4 461.5 265.8 464.1 258.7 460.95 251.4 457.75 248.4 452.25 245.4 447.05 243.7 445.9 242.2 444.45 238.45 444.25 236.25 444.0 233.9 442.35 231.9 440.7 231.25 438.4 230.85 434.75 229.9 433.25 229.1 431.45 226.4 430.8 221.5 429.05 221.1 422.15 224.35 419.55 227.4 416.8 228.65 418.15 230.6 419.15 233.3 419.85 234.2 421.4 235.15 422.85 234.95 425.75 235.0 428.05 237.3 429.8 239.6 431.5 242.9 432.1 246.5 432.55 247.95 434.25 249.3 435.3 251.2 440.7 253.55 446.25 260.25 449.5 267.1 452.3 274.05 450.15 281.15 447.5 287.4 451.25 293.45 454.6 296.6 450.75 299.95 446.4 302.25 446.65 302.6 446.5 308.05 448.2 L310.0 448.6" fill="#9b1250" fill-rule="evenodd" stroke="none"/>
  </g>
</svg>
