<?xml version="1.0" encoding="UTF-8" standalone="no"?>
<svg xmlns:xlink="http://www.w3.org/1999/xlink" height="20.05px" width="22.9px" xmlns="http://www.w3.org/2000/svg">
  <g transform="matrix(1.0, 0.0, 0.0, 1.0, 14.3, 24.15)">
    <path d="M5.7 -18.6 Q9.85 -17.2 8.05 -9.15 6.75 -5.2 4.55 -4.35 2.6 -3.6 -1.25 -4.9 -0.65 -6.6 -1.3 -7.75 -2.4 -9.0 -3.2 -7.75 -3.8 -5.55 -4.3 -5.3 -5.45 -5.2 -4.55 -8.55 L-5.8 -9.0 -4.9 -11.65 Q-2.95 -12.7 -2.3 -14.25 -4.6 -14.3 -5.8 -16.3 L-1.05 -15.9 Q-1.2 -18.3 -3.35 -19.75 1.45 -19.5 4.5 -16.45 5.85 -17.25 5.7 -18.6" fill="#bbbbbb" fill-rule="evenodd" stroke="none"/>
    <path d="M5.7 -18.6 Q5.85 -17.25 4.5 -16.45 1.45 -19.5 -3.35 -19.75 -1.2 -18.3 -1.05 -15.9 L-5.8 -16.3 Q-4.6 -14.3 -2.3 -14.25 -2.95 -12.7 -4.9 -11.65 L-7.45 -11.5 Q-6.25 -12.4 -5.55 -13.5 -7.75 -12.35 -10.2 -12.95 -8.05 -13.65 -7.1 -14.45 L-13.2 -14.65 Q-10.95 -14.7 -9.4 -15.6 -10.4 -15.7 -11.75 -17.15 -13.15 -18.55 -14.3 -18.75 -12.2 -20.1 -8.55 -20.2 L-11.05 -22.55 Q-9.2 -21.9 -5.05 -22.5 -1.35 -23.05 0.95 -21.65 L-0.65 -24.15 Q4.6 -23.3 5.7 -18.6" fill="#ffffff" fill-rule="evenodd" stroke="none"/>
  </g>
</svg>
